SplineFontDB: 3.0
FontName: N-Other
FullName: 
FamilyName: N
Weight: 
Copyright: 
UComments: "2011-5-24: Created." 
Version: 
ItalicAngle: 0
UnderlinePosition: -100
UnderlineWidth: 50
Ascent: 800
Descent: 200
LayerCount: 2
Layer: 0 0 "Back"  1
Layer: 1 0 "Zeichenebene"  0
XUID: [1021 201 23757 16427]
FSType: 0
OS2Version: 0
OS2_WeightWidthSlopeOnly: 0
OS2_UseTypoMetrics: 1
CreationTime: 1306259327
ModificationTime: 1409118309
OS2TypoAscent: 0
OS2TypoAOffset: 1
OS2TypoDescent: 0
OS2TypoDOffset: 1
OS2TypoLinegap: 90
OS2WinAscent: 0
OS2WinAOffset: 1
OS2WinDescent: 0
OS2WinDOffset: 1
HheadAscent: 0
HheadAOffset: 1
HheadDescent: 0
HheadDOffset: 1
OS2Vendor: 'PfEd'
MarkAttachClasses: 1
DEI: 91125
Encoding: UnicodeBmp
UnicodeInterp: none
NameList: Adobe Glyph List
DisplaySize: -72
AntiAlias: 1
FitToEm: 1
WinInfo: 80 8 7
BeginPrivate: 0
EndPrivate
BeginChars: 65536 84

StartChar: zero
Encoding: 48 48 0
Width: 633
VWidth: 0
Flags: HW
HStem: 218 64<65.0051 286.856> 435 65<352.004 623>
VStem: 0 65<0 218 282 500> 287 65<0 218 282 435>
LayerCount: 2
Fore
SplineSet
0 500 m 1
 65 500 l 1
 65 300 l 2
 65 294 70 282 82 282 c 2
 276 282 l 6
 286 282 297 294 297 306 c 6
 297 500 l 5
 633 500 l 5
 633 435 l 5
 378 435 l 6
 368 435 362 428 362 421 c 6
 362 0 l 5
 297 0 l 5
 297 202 l 6
 297 212 289 218 278 218 c 6
 82 218 l 2
 72 218 65 208 65 202 c 2
 65 0 l 1
 0 0 l 1
 0 500 l 1
EndSplineSet
EndChar

StartChar: one
Encoding: 49 49 1
Width: 648
VWidth: 0
Flags: HMW
LayerCount: 2
Fore
SplineSet
312 500 m 1
 648 500 l 1
 648 435 l 1
 393 435 l 2
 383 435 377 428 377 421 c 2
 377 0 l 1
 312 0 l 1
 85 350 l 2
 79 359 65 352 65 342 c 2
 65 0 l 1
 0 0 l 1
 0 500 l 1
 65 500 l 1
 288 157 l 2
 296 144 312 151 312 164 c 2
 312 500 l 1
EndSplineSet
EndChar

StartChar: two
Encoding: 50 50 2
Width: 336
VWidth: 0
Flags: HW
LayerCount: 2
Fore
SplineSet
336 500 m 1
 336 0 l 1
 271 0 l 1
 271 421 l 2
 271 428 265 435 255 435 c 2
 0 435 l 1
 0 500 l 1
 336 500 l 1
EndSplineSet
EndChar

StartChar: three
Encoding: 51 51 3
Width: 331
VWidth: 0
Flags: HW
LayerCount: 2
Fore
SplineSet
0 500 m 1
 336 500 l 1
 336 435 l 1
 81 435 l 2
 71 435 65 428 65 421 c 2
 65 0 l 1
 0 0 l 1
 0 500 l 1
EndSplineSet
EndChar

StartChar: six
Encoding: 54 54 4
Width: 82
Flags: W
VStem: 52 30<-86.3272 86.748>
LayerCount: 2
Fore
SplineSet
82 0 m 0
 82 -80 44.0469 -145.415 24 -169 c 0
 18.0293 -176.024 12 -179 8 -179 c 0
 2 -179 0 -176 0 -169 c 0
 0 -165 2.45898 -159.282 6 -153 c 0
 21.5 -125.5 52 -75.5 52 0 c 0
 52 76.5 21.5 125.5 6 153 c 0
 2.45898 159.282 0 165 0 169 c 0
 0 176 2 179 8 179 c 0
 12 179 18.0293 176.024 24 169 c 0
 44.0469 145.415 82 81 82 0 c 0
EndSplineSet
EndChar

StartChar: eight
Encoding: 56 56 5
Width: 280
VWidth: 0
Flags: HW
HStem: -126 22G<51.5 55 223 226.5>
VStem: 73 130<-71.7344 -7.125>
LayerCount: 2
Fore
SplineSet
150 129 m 2
 168 76 l 2
 176 50 178 48 205 48 c 2
 262 48 l 2
 275 48 280 45 280 41 c 0
 280 38 276 33 268 27 c 2
 226 -6 l 2
 209 -18 203 -23 203 -31 c 0
 203 -35 205 -40 208 -48 c 2
 224 -97 l 2
 228 -106 229 -114 229 -118 c 0
 229 -123 228 -125 225 -125 c 0
 221 -125 214 -121 204 -114 c 2
 162 -81 l 2
 154 -75 148 -72 141 -72 c 0
 134 -72 128 -75 119 -81 c 2
 70 -118 l 2
 62 -123 57 -126 53 -126 c 0
 50 -126 48 -124 48 -119 c 0
 48 -116 49 -111 51 -105 c 2
 70 -46 l 2
 72 -40 73 -36 73 -32 c 0
 73 -24 70 -19 60 -12 c 2
 10 27 l 2
 4 32 0 37 0 41 c 0
 0 45 5 48 18 48 c 2
 72 48 l 2
 97 48 101 51 108 70 c 2
 128 127 l 2
 132 139 135 145 139 145 c 0
 143 145 146 140 150 129 c 2
EndSplineSet
EndChar

StartChar: H
Encoding: 72 72 9
Width: 628
VWidth: 0
Flags: MW
HStem: 232 32<0.00151443 101.86 197.947 294.941 333.059 430.053 526.14 627.998> 602 20G<306.5 320.5>
VStem: 298 33<-125.999 -24.9287 22.0944 229.304 266.991 474.797 520.253 621.999>
LayerCount: 2
Fore
SplineSet
0 248 m 0
 0 262 1 264 17 264 c 2
 70 264 l 2
 92 264 103 269 106 294 c 0
 119 392 172 483 257 511 c 0
 288 521 297 524 297 555 c 2
 297 603 l 2
 297 621 299 622 314 622 c 0
 327 622 330 621 330 605 c 2
 330 552 l 2
 330 525 334 521 363 513 c 0
 451 488 506 399 521 301 c 0
 526 270 531 264 560 264 c 2
 609 264 l 2
 626 264 628 264 628 248 c 0
 628 235 627 232 611 232 c 2
 558 232 l 2
 536 232 525 227 522 202 c 0
 509 104 456 13 371 -15 c 0
 340 -25 331 -33 331 -59 c 2
 331 -107 l 2
 331 -125 329 -126 314 -126 c 0
 301 -126 298 -125 298 -109 c 2
 298 -56 l 2
 298 -29 293 -25 264 -17 c 0
 176 8 122 97 107 195 c 0
 102 226 97 232 68 232 c 2
 19 232 l 2
 2 232 0 233 0 248 c 0
372 32 m 0
 410 60 427 120 432 198 c 0
 432 200 432 202 432 204 c 0
 432 230 418 232 396 232 c 2
 370 232 l 2
 336 232 331 222 331 200 c 2
 331 50 l 2
 331 32 337 22 348 22 c 0
 354 22 362 25 372 32 c 0
298 52 m 2
 298 198 l 2
 298 223 293 232 265 232 c 2
 226 232 l 2
 209 232 196 228 196 202 c 0
 196 200 196 198 196 196 c 0
 201 114 219 51 263 26 c 0
 271 21 277 19 282 19 c 0
 294 19 298 31 298 52 c 2
256 464 m 0
 218 436 201 377 196 299 c 0
 196 297 196 295 196 293 c 0
 196 267 210 264 232 264 c 2
 258 264 l 2
 292 264 297 274 297 296 c 2
 297 446 l 2
 297 464 292 475 281 475 c 0
 275 475 266 471 256 464 c 0
330 444 m 2
 330 298 l 2
 330 273 335 264 363 264 c 2
 402 264 l 2
 419 264 432 268 432 294 c 0
 432 296 432 298 432 300 c 0
 427 382 409 445 365 470 c 0
 357 475 351 477 346 477 c 0
 334 477 330 465 330 444 c 2
EndSplineSet
EndChar

StartChar: J
Encoding: 74 74 10
Width: 628
VWidth: 0
Flags: HW
HStem: 232 32<0.00151443 101.86 197.947 294.941 333.059 430.053 526.14 627.998> 602 20G<306.5 320.5>
VStem: 298 33<-125.999 -24.9287 22.0944 229.304 266.991 474.797 520.253 621.999>
CounterMasks: 1 1c
LayerCount: 2
Fore
SplineSet
0 248 m 0
 0 262 1 264 17 264 c 2
 70 264 l 2
 92 264 103 269 106 294 c 0
 119 392 172 483 257 511 c 0
 288 521 297 524 297 555 c 2
 297 603 l 2
 297 621 299 622 314 622 c 0
 327 622 330 621 330 605 c 2
 330 552 l 2
 330 525 334 521 363 513 c 0
 451 488 506 399 521 301 c 0
 526 270 531 264 560 264 c 2
 609 264 l 2
 626 264 628 264 628 248 c 0
 628 235 627 232 611 232 c 2
 558 232 l 2
 536 232 525 227 522 202 c 0
 509 104 456 13 371 -15 c 0
 340 -25 331 -33 331 -59 c 2
 331 -107 l 2
 331 -125 329 -126 314 -126 c 0
 301 -126 298 -125 298 -109 c 2
 298 -56 l 2
 298 -29 293 -25 264 -17 c 0
 176 8 122 97 107 195 c 0
 102 226 97 232 68 232 c 2
 19 232 l 2
 2 232 0 233 0 248 c 0
298 52 m 2
 298 198 l 2
 298 223 293 232 265 232 c 2
 226 232 l 2
 209 232 196 228 196 202 c 0
 196 200 196 198 196 196 c 0
 201 114 219 51 263 26 c 0
 271 21 277 19 282 19 c 0
 294 19 298 31 298 52 c 2
256 464 m 0
 218 436 201 377 196 299 c 0
 196 297 196 295 196 293 c 0
 196 267 210 264 232 264 c 2
 258 264 l 2
 292 264 297 274 297 296 c 2
 297 446 l 2
 297 464 292 475 281 475 c 0
 275 475 266 471 256 464 c 0
EndSplineSet
EndChar

StartChar: I
Encoding: 73 73 11
Width: 628
VWidth: 0
Flags: W
HStem: -126 21G<307.5 321.5> 232 32<0.00151443 101.86 333.059 430.053 526.14 627.998> 602 20G<306.5 320.5>
VStem: 298 33<-125.999 -24.9287 520.253 621.999>
LayerCount: 2
Fore
SplineSet
0 248 m 0
 0 262 1 264 17 264 c 2
 70 264 l 2
 92 264 103 269 106 294 c 0
 119 392 172 483 257 511 c 0
 288 521 297 524 297 555 c 2
 297 603 l 2
 297 621 299 622 314 622 c 0
 327 622 330 621 330 605 c 2
 330 552 l 2
 330 525 334 521 363 513 c 0
 451 488 506 399 521 301 c 0
 526 270 531 264 560 264 c 2
 609 264 l 2
 626 264 628 264 628 248 c 0
 628 235 627 232 611 232 c 2
 558 232 l 2
 536 232 525 227 522 202 c 0
 509 104 456 13 371 -15 c 0
 340 -25 331 -33 331 -59 c 2
 331 -107 l 2
 331 -125 329 -126 314 -126 c 0
 301 -126 298 -125 298 -109 c 2
 298 -56 l 2
 298 -29 293 -25 264 -17 c 0
 176 8 122 97 107 195 c 0
 102 226 97 232 68 232 c 2
 19 232 l 2
 2 232 0 233 0 248 c 0
372 32 m 0
 410 60 427 120 432 198 c 0
 432 200 432 202 432 204 c 0
 432 230 418 232 396 232 c 2
 370 232 l 2
 336 232 331 222 331 200 c 2
 331 50 l 2
 331 32 337 22 348 22 c 0
 354 22 362 25 372 32 c 0
330 444 m 2
 330 298 l 2
 330 273 335 264 363 264 c 2
 402 264 l 2
 419 264 432 268 432 294 c 0
 432 296 432 298 432 300 c 0
 427 382 409 445 365 470 c 0
 357 475 351 477 346 477 c 0
 334 477 330 465 330 444 c 2
EndSplineSet
EndChar

StartChar: K
Encoding: 75 75 12
Width: 628
VWidth: 0
Flags: HMW
HStem: 232 32<0.00151443 101.86 197.947 294.941 333.059 430.053 526.14 627.998> 602 20G<306.5 320.5>
VStem: 298 33<-125.999 -24.9287 22.0944 229.304 266.991 474.797 520.253 621.999>
LayerCount: 2
Fore
SplineSet
0 248 m 0
 0 262 1 264 17 264 c 2
 70 264 l 2
 92 264 103 269 106 294 c 0
 119 392 172 483 257 511 c 0
 288 521 297 524 297 555 c 2
 297 603 l 2
 297 621 299 622 314 622 c 0
 327 622 330 621 330 605 c 2
 330 552 l 2
 330 525 334 521 363 513 c 0
 451 488 506 399 521 301 c 0
 526 270 531 264 560 264 c 2
 609 264 l 2
 626 264 628 264 628 248 c 0
 628 235 627 232 611 232 c 2
 558 232 l 2
 536 232 525 227 522 202 c 0
 509 104 456 13 371 -15 c 0
 340 -25 331 -33 331 -59 c 2
 331 -107 l 2
 331 -125 329 -126 314 -126 c 0
 301 -126 298 -125 298 -109 c 2
 298 -56 l 2
 298 -29 293 -25 264 -17 c 0
 176 8 122 97 107 195 c 0
 102 226 97 232 68 232 c 2
 19 232 l 2
 2 232 0 233 0 248 c 0
372 32 m 0
 410 60 427 120 432 198 c 0
 432 200 432 202 432 204 c 0
 432 230 418 232 396 232 c 2
 370 232 l 2
 336 232 331 222 331 200 c 2
 331 50 l 2
 331 32 337 22 348 22 c 0
 354 22 362 25 372 32 c 0
256 464 m 0
 218 436 201 377 196 299 c 0
 196 297 196 295 196 293 c 0
 196 267 210 264 232 264 c 2
 258 264 l 2
 292 264 297 274 297 296 c 2
 297 446 l 2
 297 464 292 475 281 475 c 0
 275 475 266 471 256 464 c 0
EndSplineSet
EndChar

StartChar: P
Encoding: 80 80 13
Width: 0
VWidth: 0
Flags: HMW
LayerCount: 2
Fore
SplineSet
0 50 m 0
 71 100 152 147 221 147 c 0
 314.293 147 370 70.3314 370 -16 c 0
 370 -95 323 -173 249 -173 c 0
 203 -173 177 -142 177 -110 c 0
 177 -71 205 -51 237 -51 c 0
 260 -51 274.5 -68 298 -68 c 0
 321 -68 338 -38 338 -11 c 0
 338 40.9512 299.549 74 250 74 c 0
 176 74 90 13 0 -50 c 0
 -71 -99 -152 -147 -221 -147 c 0
 -314.293 -147 -370 -70.3311 -370 16 c 0
 -370 95 -323 173 -249 173 c 0
 -203 173 -177 142 -177 110 c 0
 -177 71 -205 51 -237 51 c 0
 -260 51 -274.5 68 -298 68 c 0
 -321 68 -338 38 -338 11 c 0
 -338 -40.9512 -299.549 -74 -250 -74 c 0
 -176 -74 -90 -12 0 50 c 0
EndSplineSet
EndChar

StartChar: Q
Encoding: 81 81 14
Width: 0
VWidth: 0
Flags: W
HStem: -339 56<94 189.463> -136 94<-299.606 -220.394> 42 94<220.394 299.606> 282 56<-189.848 -95>
VStem: -307 94<-128.606 -49.3939> -290 49<145.58 241.141> -114 105<206.444 264.836> 7 106<-267.021 -207.444> 213 94<49.3939 128.606> 239 50<-242.141 -144.548>
LayerCount: 2
Fore
SplineSet
-213 -89 m 0xfb
 -213 -115 -234 -136 -260 -136 c 0
 -286 -136 -307 -115 -307 -89 c 0
 -307 -63 -286 -42 -260 -42 c 0
 -234 -42 -213 -63 -213 -89 c 0xfb
213 89 m 0xf380
 213 115 234 136 260 136 c 0
 286 136 307 115 307 89 c 0
 307 63 286 42 260 42 c 0
 234 42 213 63 213 89 c 0xf380
216 307 m 2
 222 314 225 318 229 318 c 0
 233 318 236 316 242 311 c 0
 254 302 256 299 246 286 c 2
 -217 -307 l 2
 -223 -314 -227 -318 -231 -318 c 0
 -234 -318 -238 -316 -243 -312 c 0
 -257 -301 -258 -299 -247 -286 c 2
 216 307 l 2
165 -283 m 0
 207 -283 239 -239 239 -203 c 0
 239 -183 232 -162 217 -144 c 0
 169 -88 66 -62 -39 -32 c 0
 -123 -10 -211 22 -255 74 c 0
 -279 103 -290 135 -290 166 c 0
 -290 253 -202 338 -111 338 c 0
 -79 338 -50 327 -28 302 c 0
 -15 285 -9 268 -9 252 c 0
 -9 220 -37 191 -68 191 c 0
 -86 191 -102 200 -114 214 c 0
 -132 235 -125 282 -166 282 c 0
 -209 282 -241 238 -241 202 c 0
 -241 182 -233 161 -218 144 c 0
 -171 87 -69 60 38 32 c 0
 121 9 210 -22 254 -75 c 0
 278 -104 289 -136 289 -167 c 0xf740
 289 -254 201 -339 110 -339 c 0
 78 -339 48 -328 27 -302 c 0
 13 -286 7 -269 7 -253 c 0
 7 -221 36 -192 67 -192 c 0
 84 -192 101 -200 113 -215 c 0
 130 -236 123 -283 165 -283 c 0
EndSplineSet
EndChar

StartChar: R
Encoding: 82 82 15
Width: 307
VWidth: 0
Flags: HMW
HStem: -339 56<94 189.463> -136 94<-299.606 -220.394> 42 94<220.394 299.606> 282 56<-189.848 -95>
VStem: -307 94<-128.606 -49.3939> -290 49<145.58 241.141> -114 105<206.444 264.836> 7 106<-267.021 -207.444> 213 94<49.3939 128.606> 239 50<-242.141 -144.548>
LayerCount: 2
Fore
SplineSet
165 -283 m 0xf740
 207 -283 239 -239 239 -203 c 0
 239 -183 232 -162 217 -144 c 0
 183 -104 121 -78 50 -58 c 0
 2 -44 -28 -65 -50 -93 c 2
 -217 -307 l 2
 -223 -314 -227 -318 -231 -318 c 0
 -234 -318 -238 -316 -243 -312 c 0
 -257 -301 -258 -299 -247 -286 c 2
 -87 -82 l 2
 -68 -56 -63 -28 -119 -8 c 0
 -175 12 -225 39 -255 74 c 0
 -279 103 -290 135 -290 166 c 0
 -290 253 -202 338 -111 338 c 0
 -79 338 -50 327 -28 302 c 1
 -15 285 -9 268 -9 252 c 0
 -9 220 -37 191 -68 191 c 0
 -86 191 -102 200 -114 214 c 0
 -132 235 -125 282 -166 282 c 0
 -209 282 -241 238 -241 202 c 0
 -241 182 -233 161 -218 144 c 0
 -184 103 -121 77 -48 55 c 0
 0 41 24 61 46 89 c 2
 216 307 l 2
 222 314 225 318 229 318 c 0
 233 318 236 316 242 311 c 0
 254 302 256 299 246 286 c 2
 82 76 l 2
 63 51 58 28 103 12 c 0
 164 -9 221 -36 254 -75 c 0
 278 -104 289 -136 289 -167 c 0
 289 -254 201 -339 110 -339 c 0
 78 -339 48 -328 27 -302 c 0
 13 -286 7 -269 7 -253 c 0
 7 -221 36 -192 67 -192 c 0
 84 -192 101 -200 113 -215 c 0
 130 -236 123 -283 165 -283 c 0xf740
213 89 m 0xf380
 213 115 234 136 260 136 c 0
 286 136 307 115 307 89 c 0
 307 63 286 42 260 42 c 0
 234 42 213 63 213 89 c 0xf380
-213 -89 m 0xfb
 -213 -115 -234 -136 -260 -136 c 0
 -286 -136 -307 -115 -307 -89 c 0
 -307 -63 -286 -42 -260 -42 c 0
 -234 -42 -213 -63 -213 -89 c 0xfb
EndSplineSet
EndChar

StartChar: grave
Encoding: 96 96 16
Width: 331
Flags: W
LayerCount: 2
Fore
SplineSet
331 185 m 2
 331 150 l 2
 331 113 329 112 288 71 c 2
 42 -176 l 2
 26 -191 16 -200 9 -200 c 0
 2 -200 0 -188 0 -163 c 2
 -0 -147 l 2
 -0 -107 2 -106 41 -67 c 2
 302 193 l 2
 310 202 316 205 321 205 c 0
 328 205 331 196 331 185 c 2
EndSplineSet
EndChar

StartChar: a
Encoding: 97 97 17
Width: 484
Flags: W
HStem: -3 71<225.081 274.77> 412 69<210.261 260.873>
VStem: 0 70<223.924 271.687> 417 67<206.396 255.668>
LayerCount: 2
Fore
SplineSet
24 274 m 2
 202 451 l 2
 223 472 234 481 245 481 c 0
 256 481 266 472 283 455 c 2
 448 290 l 2
 473 265 484 252 484 240 c 0
 484 227 472 216 452 196 c 2
 271 14 l 2
 260 3 253 -3 245 -3 c 0
 236 -3 226 4 210 20 c 2
 20 211 l 1
 7 223 0 230 0 239 c 0
 0 248 7 257 24 274 c 2
188 390 m 2
 87 288 l 2
 76 277 70 268 70 258 c 0
 70 249 75 240 86 229 c 2
 225 90 l 2
 240.001 74.999 251 68 262 68 c 0
 274 68 286 76 302 92 c 2
 394 184 l 2
 409 200 417 211 417 221 c 0
 417 233 407.44 243.427 390 261 c 2
 260 392 l 2
 246.543 405.561 236 412 225 412 c 0
 214 412 203 404 188 390 c 2
EndSplineSet
EndChar

StartChar: b
Encoding: 98 98 18
Width: 1068
VWidth: 0
Flags: W
HStem: -9 32<126.006 498.757> 483 34<546.335 937.994>
LayerCount: 2
Fore
SplineSet
17 -9 m 2
 8 -9 -0 -4 -0 6 c 0
 -0 16 6 29 25 48 c 2
 466 488 l 2
 496 517 497 517 534 517 c 2
 1031 517 l 2
 1054 517 1068 510 1068 501 c 0
 1068 497 1066 493 1061 488 c 2
 597 24 l 2
 564 -9 562 -9 516 -9 c 2
 17 -9 l 2
607 483 m 2
 562 483 561 482 529 450 c 2
 135 55 l 2
 129 49 126 43 126 38 c 0
 126 29 134 23 146 23 c 2
 440 23 l 2
 484 23 483 23 511 50 c 2
 925 453 l 2
 934 462 938 468 938 473 c 0
 938 480 930 483 922 483 c 2
 607 483 l 2
EndSplineSet
EndChar

StartChar: c
Encoding: 99 99 19
Width: 351
Flags: W
LayerCount: 2
Fore
SplineSet
341 266 m 2
 348 266 351 259 351 254 c 0
 351 253 351 252 350 251 c 2
 102 -218 l 2
 90 -241 82 -241 71 -241 c 2
 24 -241 l 2
 6 -241 0 -237 0 -230 c 0
 0 -225 3 -219 7 -213 c 2
 259 252 l 2
 265 264 266 266 284 266 c 2
 341 266 l 2
EndSplineSet
EndChar

StartChar: h
Encoding: 104 104 28
Width: 1121
VWidth: 0
Flags: W
LayerCount: 2
Fore
SplineSet
1119 30 m 2
 1119 15 l 2
 1119 -9 1112 -28 1086 -36 c 2
 57 -368 l 2
 45 -372 35 -374 26 -374 c 0
 9 -374 0 -364 0 -334 c 2
 0 -316 l 2
 0 -241 10 -238 72 -218 c 2
 1044 94 l 2
 1065 100 1081 106 1092 106 c 0
 1112 106 1119 89 1119 30 c 2
1119 298 m 2
 1119 283 l 2
 1119 259 1112 240 1086 232 c 2
 57 -100 l 2
 45 -104 35 -106 26 -106 c 0
 9 -106 -0 -96 -0 -66 c 2
 0 -48 l 2
 0 27 10 30 72 50 c 2
 1044 362 l 2
 1065 368 1081 374 1092 374 c 0
 1112 374 1119 357 1119 298 c 2
EndSplineSet
EndChar

StartChar: i
Encoding: 105 105 29
Width: 1120
VWidth: 0
Flags: W
LayerCount: 2
Fore
SplineSet
1120 64 m 2
 1120 -67 l 2
 1120 -101 1117 -106 1089 -116 c 2
 42 -516 l 2
 4 -531 0 -530 0 -486 c 2
 0 -356 l 2
 0 -320 1 -316 36 -303 c 2
 1070 88 l 2
 1116 105 1120 106 1120 64 c 2
0 -70 m 2
 0 61 l 2
 0 95 3 100 31 110 c 2
 1078 510 l 2
 1116 525 1120 524 1120 480 c 2
 1120 350 l 2
 1120 314 1119 310 1084 297 c 2
 50 -94 l 2
 4 -111 0 -112 0 -70 c 2
EndSplineSet
EndChar

StartChar: S
Encoding: 83 83 31
Width: 591
VWidth: 0
Flags: HMW
HStem: -339 56<100 195.463> -136 94<-293.606 -214.394> 42 94<226.394 305.606> 282 56<-183.848 -89>
VStem: -301 94<-128.606 -49.3939> -284 49<145.58 241.141> -108 105<206.444 264.836> 13 106<-267.021 -207.444> 219 94<49.3939 128.606> 245 50<-242.141 -144.548>
LayerCount: 2
Fore
SplineSet
469 45 m 0xf3
 511 45 542 90 542 125 c 0
 542 147 534 168 518 186 c 0
 483 224 420 248 348 266 c 0
 339 268 330 269 322 269 c 0
 288 269 266 250 249 227 c 2
 90 8 l 2
 84 0 80 -4 76 -4 c 0
 68 -4 52 10 52 15 c 0
 52 18 54 22 59 28 c 2
 212 237 l 2
 219 247 224 258 224 268 c 0
 224 284 212 299 177 310 c 0
 92 337 0 383 0 482 c 0
 0 568 85 656 178 656 c 0
 208 656 236 646 257 623 c 1
 271 606 278 589 278 572 c 0
 278 540 251 510 219 510 c 0
 202 510 187 519 175 532 c 0
 156 552 161 598 122 598 c 0
 79 598 48 553 48 518 c 0
 48 496 57 475 73 458 c 0
 108 419 172 395 246 375 c 0
 256 373 265 372 272 372 c 0
 304 372 322 390 339 413 c 2
 501 636 l 2
 507 644 510 648 514 648 c 2
 514 648 l 2
 521 648 538 634 538 629 c 0
 538 626 536 622 532 616 c 2
 375 401 l 2
 368 390 362 380 362 370 c 0
 362 357 372 346 399 338 c 0
 460 319 518 294 552 256 c 0
 578 227 591 195 591 161 c 0
 591 75 506 -13 413 -13 c 0
 383 -13 354 -3 334 21 c 0
 319 37 312 54 312 71 c 0
 312 103 340 132 372 132 c 0
 388 132 404 125 416 111 c 0
 434 91 429 45 469 45 c 0xf3
538 373 m 4
 512 373 491 394 491 421 c 4
 491 446 511 468 538 468 c 4
 564 468 585 447 585 420 c 4
 585 395 564 373 538 373 c 4
54 271 m 0
 80 271 101 250 101 223 c 0
 101 198 81 176 54 176 c 0
 28 176 7 197 7 224 c 0
 7 249 28 271 54 271 c 0
EndSplineSet
EndChar

StartChar: less
Encoding: 60 60 32
Width: 271
Flags: HMW
LayerCount: 2
Fore
SplineSet
178 14 m 0
 213 14 222 15 247 15 c 0
 266 15 271 13 271 1 c 0
 271 -13 268 -17 245 -17 c 0
 206 -17 194 -16 172 -16 c 0
 158 -16 150 -27 150 -41 c 0
 150 -76 151 -90 151 -112 c 0
 151 -131 149 -136 137 -136 c 0
 125 -136 119 -133 119 -110 c 0
 119 -72 120 -63 120 -42 c 0
 120 -25 108 -16 87 -16 c 0
 86 -16 52 -17 37 -17 c 0
 1 -17 0 -14 0 -2 c 0
 0 0 l 0
 0 12 8 15 31 15 c 0
 93 15 l 0
 110 15 120 26 120 38 c 0
 120 53 119 84 119 98 c 0
 119 134 125 135 133 135 c 0
 136 135 l 0
 149 135 152 131 152 113 c 0
 152 97 151 61 151 44 c 0
 151 25 160 14 178 14 c 0
EndSplineSet
EndChar

StartChar: at
Encoding: 64 64 33
Width: 403
VWidth: 0
Flags: W
HStem: -25 31<120.269 277.536> 818 21G<311 359> 1024 31<125.464 282.731>
VStem: 4 68<48.3656 125.216 879.013 976.951> 64 1<691 769> 65 1<454 532> 331 68<53.0485 149.262 904.784 981.634>
LayerCount: 2
Fore
SplineSet
399 125 m 0xf2
 399 33 310 -25 211 -25 c 0
 73 -25 0 40 0 133 c 0
 0 157 18 212 70 212 c 0
 114 212 133 180 133 153 c 0
 133 100 78 102 78 66 c 0
 78 33 132 6 205 6 c 0
 267 6 331 38 331 91 c 0
 331 236 5 252 5 422 c 0
 5 490 65 501 65 532 c 0xe6
 65 564 4 580 4 659 c 0xf2
 4 727 64 737 64 769 c 0xea
 64 802 4 817 4 905 c 0
 4 997 93 1055 192 1055 c 0
 330 1055 403 990 403 897 c 0
 403 873 385 818 333 818 c 0
 289 818 270 850 270 877 c 0
 270 930 325 928 325 964 c 0
 325 997 271 1024 198 1024 c 0
 136 1024 72 992 72 939 c 0
 72 794 398 778 398 608 c 0
 398 540 338 530 338 498 c 0
 338 465 398 451 398 372 c 0
 398 304 338 294 338 262 c 0
 338 229 399 213 399 125 c 0xf2
66 454 m 0
 66 388 152 353 237 310 c 0
 252 302 270 289 290 289 c 0
 318 289 337 314 337 340 c 0
 337 401 265 432 201 466 c 2
 163 486 l 2
 147 495 130 505 112 505 c 0
 87 505 66 482 66 454 c 0
65 691 m 0xea
 65 629 137 599 201 565 c 2
 242 543 l 2
 256 535 273 525 290 525 c 0
 317 525 337 550 337 576 c 0
 337 647 237 682 146 730 c 0
 135 736 123 741 111 741 c 0
 83 741 65 717 65 691 c 0xea
EndSplineSet
EndChar

StartChar: A
Encoding: 65 65 38
Width: 403
VWidth: 0
Flags: W
HStem: 581 21G<311 359> 787 31<125.464 282.731>
VStem: 4 68<642.354 739.951> 325 78<648 738.454> 337 1<259 339>
LayerCount: 2
Back
SplineSet
58 534 m 4xec
 59 562 4 575 4 668 c 7
 4 760 93 818 192 818 c 7
 330 818 403 753 403 660 c 7
 403 636 385 581 333 581 c 7
 289 581 270 611 270 645 c 7
 270 692 325 691 325 727 c 7xea
 325 760 266 788 203 788 c 7
 141 788 72 755 72 702 c 7
 72 570 398 552 398 371 c 4xe1
 397 302 327 286 327 257 c 7
 327 235 392 208 392 133 c 7
 392 36 307 -33 211 -34 c 4
 73 -34 0 31 0 124 c 7
 0 148 18 203 70 203 c 7
 114 203 133 173 133 139 c 7
 133 92 78 93 78 57 c 7xf4
 78 24 137 -4 200 -4 c 4
 259 -4 313 36 313 93 c 7
 313 219 2 230 2 417 c 7
 2 487 58 514 58 534 c 4xec
100 502 m 7
 69 502 53 486 53 454 c 7
 53 422 99 379 154 351 c 4
 223 316 273 285 293 285 c 7
 322 285 341 310 341 338 c 7xe9
 341 387 265 427 196 462 c 4
 157 482 123 502 100 502 c 7
EndSplineSet
Fore
SplineSet
4 668 m 0xe8
 4 760 93 818 192 818 c 0
 330 818 403 753 403 660 c 0
 403 636 385 581 333 581 c 0
 289 581 270 612 270 640 c 0
 270 693 325 691 325 727 c 0xf0
 325 760 271 787 198 787 c 0
 136 787 72 755 72 702 c 0
 72 557 398 541 398 371 c 0
 398 303 338 293 338 261 c 0
 338 228 399 214 399 125 c 0
 399 33 310 -25 211 -25 c 0
 73 -25 0 40 0 133 c 0
 0 157 18 212 70 212 c 0
 114 212 133 180 133 153 c 0
 133 100 78 102 78 66 c 0
 78 33 132 6 205 6 c 0
 267 6 331 38 331 91 c 0
 331 236 5 252 5 422 c 0
 5 490 65 500 65 532 c 0
 65 563 4 583 4 668 c 0xe8
292 289 m 0
 319 289 337 314 337 339 c 0xe8
 337 407 245 442 158 487 c 0
 144 495 128 504 111 504 c 0
 84 504 66 479 66 454 c 0
 66 385 160 350 249 304 c 0
 263 297 277 289 292 289 c 0
EndSplineSet
EndChar

StartChar: X
Encoding: 88 88 39
Width: 473
Flags: W
HStem: 73 95<348.752 426.984> 340 95<43.752 121.984>
VStem: 36 94<347.642 427.358> 341 94<80.6421 160.358>
LayerCount: 2
Fore
SplineSet
388 73 m 0
 362 73 341 94 341 121 c 0
 341 146 361 168 388 168 c 0
 414 168 435 147 435 120 c 0
 435 95 414 73 388 73 c 0
83 340 m 0
 57 340 36 361 36 388 c 0
 36 413 56 435 83 435 c 0
 109 435 130 414 130 387 c 0
 130 362 109 340 83 340 c 0
463 507 m 6
 470 507 473 501 473 496 c 4
 473 494 472 492 471 490 c 6
 112 19 l 6
 100 4 96 0 77 0 c 6
 18 0 l 6
 9 0 0 4 0 11 c 4
 0 14 2 18 5 22 c 6
 374 500 l 6
 379 507 385 507 395 507 c 6
 463 507 l 6
EndSplineSet
EndChar

StartChar: Y
Encoding: 89 89 40
Width: 684
Flags: W
HStem: 73 95<559.752 637.984> 340 95<43.752 121.984>
VStem: 36 94<347.642 427.358> 552 94<80.6421 160.358>
LayerCount: 2
Fore
SplineSet
674 507 m 2
 681 507 684 501 684 496 c 0
 684 494 683 492 682 490 c 2
 323 19 l 2
 311 4 307 0 288 0 c 2
 229 0 l 2
 220 0 211 4 211 11 c 0
 211 14 213 18 216 22 c 2
 585 500 l 2
 590 507 596 507 606 507 c 2
 674 507 l 2
463 507 m 2
 470 507 473 501 473 496 c 0
 473 494 472 492 471 490 c 2
 112 19 l 2
 100 4 96 0 77 0 c 2
 18 0 l 2
 9 0 0 4 0 11 c 0
 0 14 2 18 5 22 c 2
 374 500 l 2
 379 507 385 507 395 507 c 2
 463 507 l 2
599 73 m 0
 573 73 552 94 552 121 c 0
 552 146 572 168 599 168 c 0
 625 168 646 147 646 120 c 0
 646 95 625 73 599 73 c 0
83 340 m 0
 57 340 36 361 36 388 c 0
 36 413 56 435 83 435 c 0
 109 435 130 414 130 387 c 0
 130 362 109 340 83 340 c 0
EndSplineSet
EndChar

StartChar: Z
Encoding: 90 90 41
Width: 473
Flags: HW
LayerCount: 2
Fore
SplineSet
463 507 m 2
 470 507 473 501 473 496 c 0
 473 494 472 492 471 490 c 2
 112 19 l 2
 100 4 96 0 77 0 c 2
 18 0 l 2
 9 0 0 4 0 11 c 0
 0 14 2 18 5 22 c 2
 374 500 l 2
 379 507 385 507 395 507 c 2
 463 507 l 2
EndSplineSet
EndChar

StartChar: B
Encoding: 66 66 56
Width: 403
VWidth: 0
Flags: MW
HStem: -25 31<120.269 277.536> 816 21G<325.5 364.5> 1024 31<125.464 282.731>
VStem: 4 68<48.3656 135.026 878.924 976.951> 64 1<691 769> 65 1<454 532> 150 31<76.0022 225.325 368.475 461.425 604.834 699.133 847.932 953.997> 222 31<76.0015 182.068 330.867 425.166 568.575 661.525 804.675 953.998> 331 68<53.0485 151.076 894.974 981.634> 337 1<498 576> 338 1<261 339>
LayerCount: 2
Back
SplineSet
181 348 m 4
 186 337 193 330 201 330 c 7
 210 330 220 339 220 359 c 6
 220 411 l 6
 220 421 219 428 217 435 c 4
 213 447 204 456 194 456 c 7
 186 456 176 450 176 427 c 6
 176 391 l 6
 176 374 176 360 181 348 c 4
287 539 m 4
 308 539 330 555 330 588 c 4
 330 608 318 626 300 644 c 4
 276 665 251 672 251 627 c 6
 251 587 l 6
 251 552 261 539 287 539 c 4
198 -3 m 5
 260 -3 324 29 324 82 c 4
 324 106 313 127 295 145 c 4
 275 165 251 169 251 128 c 6
 251 91 l 6
 251 73 248 67 235 67 c 4
 222 67 220 74 220 92 c 6
 220 148 l 6
 220 161 220 172 217 181 c 4
 214 196 206 203 196 203 c 7
 187 203 176 198 176 172 c 6
 176 87 l 6
 176 70 173 67 161 67 c 4
 147 67 145 68 145 85 c 6
 145 190 l 6
 145 236 135 246 101 268 c 4
 47 304 5 348 5 413 c 4
 6 456 30 477 48 494 c 4
 61 507 66 517 66 525 c 4
 66 537 56 547 44 561 c 4
 19 589 4 621 4 662 c 4
 5 701 25 722 42 738 c 4
 58 754 64 764 64 774 c 4
 64 786 53 797 39 815 c 4
 18 842 4 875 4 917 c 4
 4 1009 93 1067 192 1067 c 4
 322 1067 396 999 396 909 c 4
 396 885 382 827 330 827 c 4
 294 827 281 853 281 881 c 4
 281 925 318 940 318 976 c 4
 318 1008 267 1034 198 1036 c 4
 136 1036 72 1004 72 951 c 4
 72 927 83 906 101 888 c 4
 121 868 145 864 145 905 c 6
 145 942 l 6
 145 960 148 966 161 966 c 4
 174 966 176 959 176 941 c 6
 176 885 l 6
 176 863 177 848 185 836 c 4
 194 823 212 817 218 840 c 4
 219 846 220 853 220 861 c 6
 220 946 l 6
 220 963 223 966 235 966 c 4
 249 966 251 965 251 948 c 6
 251 844 l 6
 251 796 261 787 295 765 c 4
 349 729 391 685 391 620 c 5
 390 577 366 556 348 539 c 4
 335 526 330 516 330 508 c 4
 330 496 340 486 352 472 c 4
 377 444 392 412 392 371 c 5
 391 332 371 311 354 295 c 4
 338 279 332 269 332 259 c 4
 332 247 343 236 357 218 c 4
 378 191 392 158 392 116 c 4
 392 24 303 -34 204 -34 c 4
 202 -34 200 -34 198 -34 c 5
 68 -30 0 34 0 124 c 4
 0 148 14 206 66 206 c 4
 102 206 115 180 115 152 c 4
 115 108 78 93 78 57 c 4
 78 25 129 -1 198 -3 c 5
251 382 m 6
 251 334 l 6
 251 303 261 290 287 290 c 4
 309 290 331 307 331 339 c 4
 331 359 318 377 299 395 c 4
 277 414 251 419 251 382 c 6
181 595 m 4
 186 584 193 577 201 577 c 7
 210 577 220 586 220 606 c 6
 220 658 l 6
 220 667 219 675 217 681 c 4
 213 694 204 703 194 703 c 7
 186 703 176 697 176 674 c 6
 176 638 l 6
 176 620 176 607 181 595 c 4
109 494 m 4
 88 494 66 478 66 445 c 4
 66 425 78 407 96 389 c 4
 120 368 145 361 145 406 c 6
 145 446 l 6
 145 481 135 494 109 494 c 4
145 652 m 6
 145 700 l 6
 145 730 135 743 109 743 c 4
 87 743 65 726 65 694 c 4
 65 674 78 656 97 638 c 4
 119 619 145 614 145 652 c 6
EndSplineSet
Fore
SplineSet
65 532 m 0xe780
 65 564 4 580 4 659 c 0xf3
 4 727 64 737 64 769 c 0xeb
 64 802 4 817 4 905 c 0
 4 997 93 1055 192 1055 c 0
 330 1055 403 990 403 897 c 0
 403 862 388 816 341 816 c 0
 310 816 286 840 286 874 c 0
 286 922 325 928 325 964 c 0
 325 997 271 1024 198 1024 c 0
 136 1024 72 992 72 939 c 0
 72 908 87 883 110 861 c 0
 137 836 150 844 150 878 c 2
 150 935 l 2
 150 952 153 954 166 954 c 0
 179 954 181 950 181 932 c 2
 181 849 l 2
 181 822 181 810 199 805 c 0
 214 801 222 808 222 834 c 2
 222 934 l 2
 222 951 225 954 237 954 c 0
 251 954 253 953 253 936 c 2
 253 812 l 2
 253 779 261 769 281 758 c 0
 345 721 398 677 398 608 c 0
 398 540 338 530 338 498 c 0xf340
 338 466 399 450 399 371 c 0xe380
 399 303 339 293 339 261 c 0xe320
 339 228 399 213 399 125 c 0
 399 33 310 -25 211 -25 c 0
 73 -25 0 40 0 133 c 0
 0 168 15 214 62 214 c 0
 93 214 117 190 117 156 c 0
 117 108 78 102 78 66 c 0
 78 33 132 6 205 6 c 0
 267 6 331 38 331 91 c 0
 331 122 316 147 293 169 c 0
 266 194 253 186 253 152 c 2
 253 96 l 2
 253 78 250 76 237 76 c 0
 224 76 222 78 222 96 c 2
 222 181 l 2
 222 208 222 220 204 225 c 0
 189 229 181 222 181 196 c 2
 181 96 l 2
 181 79 178 76 166 76 c 0
 152 76 150 77 150 94 c 2
 150 218 l 2
 150 251 142 261 122 272 c 0
 58 309 5 353 5 422 c 0
 5 490 65 500 65 532 c 0xe780
222 354 m 2
 222 420 l 2
 222 444 220 458 205 461 c 0
 186 464 181 454 181 437 c 2
 181 374 l 2
 181 348 186 334 201 331 c 0
 216 328 222 335 222 354 c 2
292 289 m 0
 320 289 338 313 338 339 c 0xe320
 338 374 315 398 284 420 c 0
 267 431 253 434 253 402 c 2
 253 330 l 2
 253 304 269 289 292 289 c 0
150 391 m 2
 150 469 l 2
 150 493 136 505 113 505 c 0
 86 505 66 480 66 454 c 0xe7
 66 421 87 396 119 374 c 0
 139 360 150 365 150 391 c 2
181 676 m 2
 181 610 l 2
 181 586 183 572 198 569 c 0
 217 566 222 576 222 593 c 2
 222 656 l 2
 222 682 217 696 202 699 c 0
 187 702 181 695 181 676 c 2
111 741 m 0
 83 741 65 717 65 691 c 0xeb
 65 656 88 632 119 610 c 0
 136 599 150 596 150 628 c 2
 150 700 l 2
 150 726 134 741 111 741 c 0
253 639 m 2
 253 561 l 2
 253 537 267 525 290 525 c 0
 317 525 337 550 337 576 c 0xe340
 337 609 316 634 284 656 c 0
 264 670 253 665 253 639 c 2
EndSplineSet
EndChar

StartChar: D
Encoding: 68 68 57
Width: 400
VWidth: 0
Flags: HMW
LayerCount: 2
Back
SplineSet
254 742 m 4xf8
 254 702 287 669 327 669 c 4
 367 669 400 702 400 750 c 4xf8
 400 824 320 894 208 894 c 7
 98 894 10 818 10 728 c 7
 10 517 336 515 336 380 c 4
 336 338 304 312 240 301 c 5
 262 285 l 5
 322 295 400 352 400 433 c 7xf4
 400 616 78 624 78 777 c 7
 78 833 131 870 208 870 c 7
 278 870 327 844 345 813 c 5
 294 823 254 788 254 742 c 4xf8
146 140 m 4xf8
 146 180 113 213 73 213 c 4
 33 213 0 180 0 132 c 4xf8
 0 58 80 -12 192 -12 c 7
 302 -12 390 64 390 154 c 7
 390 365 64 367 64 502 c 4
 64 544 96 570 160 581 c 5
 138 597 l 5
 78 587 0 530 0 449 c 7xf4
 0 266 322 258 322 105 c 7
 322 49 269 12 192 12 c 7
 122 12 73 38 55 69 c 5
 106 59 146 94 146 140 c 4xf8
EndSplineSet
Fore
SplineSet
146 140 m 0
 146 180 113 213 73 213 c 0
 33 213 0 180 0 132 c 0
 0 58 80 -12 192 -12 c 0
 302 -12 390 64 390 154 c 0
 390 221 357 267 312 303 c 1
 358 327 400 374 400 433 c 0
 400 616 78 624 78 777 c 0
 78 833 131 870 208 870 c 0
 278 870 327 844 345 813 c 1
 294 823 254 788 254 742 c 0
 254 702 287 669 327 669 c 0
 367 669 400 702 400 750 c 0
 400 824 320 894 208 894 c 0
 98 894 10 818 10 728 c 0
 10 661 43 615 88 579 c 1
 42 555 0 508 0 449 c 0
 0 266 322 258 322 105 c 0
 322 49 269 12 192 12 c 0
 122 12 73 38 55 69 c 1
 106 59 146 94 146 140 c 0
293 317 m 1
 197 384 64 416 64 502 c 0
 64 530 78 551 107 565 c 1
 203 498 336 466 336 380 c 0
 336 352 322 331 293 317 c 1
EndSplineSet
EndChar

StartChar: F
Encoding: 70 70 58
Width: 400
VWidth: 0
Flags: HMW
HStem: 222 16<242.375 260.546> 606 144<265.941 333.387> 807 24<130.321 271.552>
VStem: 0 68<653.471 739.311> 244 146<628.757 731.045> 326 64<299.529 462.422>
LayerCount: 2
Back
SplineSet
254 679 m 4xf8
 254 639 287 606 327 606 c 4
 367 606 400 639 400 687 c 4xf8
 400 761 320 831 208 831 c 7
 98 831 10 755 10 665 c 7
 10 454 336 452 336 317 c 4
 336 275 304 249 240 238 c 5
 262 222 l 5
 322 232 400 289 400 370 c 7xf4
 400 553 78 561 78 714 c 7
 78 770 131 807 208 807 c 7
 278 807 327 781 345 750 c 5
 294 760 254 725 254 679 c 4xf8
EndSplineSet
Fore
SplineSet
0 654 m 3xf0
 0 735 78 792 138 802 c 1
 160 786 l 1
 96 775 64 749 64 707 c 3
 64 572 400 553 400 370 c 3
 400 289 322 232 262 222 c 1
 240 238 l 1
 304 249 336 275 336 317 c 0
 336 452 0 471 0 654 c 3xf0
EndSplineSet
EndChar

StartChar: G
Encoding: 71 71 59
Width: 390
VWidth: 0
Flags: W
HStem: 222 16<242.375 260.546> 606 144<265.941 333.387> 807 24<130.321 271.552>
VStem: 0 68<653.471 739.311> 244 146<628.757 731.045> 326 64<299.529 462.422>
LayerCount: 2
Fore
SplineSet
244 679 m 0xf8
 244 639 277 606 317 606 c 0
 357 606 390 639 390 687 c 0xf8
 390 761 310 831 198 831 c 3
 88 831 0 755 0 665 c 3
 0 454 326 452 326 317 c 0
 326 275 294 249 230 238 c 1
 252 222 l 1
 312 232 390 289 390 370 c 3xf4
 390 553 68 561 68 714 c 3
 68 770 121 807 198 807 c 3
 268 807 317 781 335 750 c 1
 284 760 244 725 244 679 c 0xf8
EndSplineSet
EndChar

StartChar: equal
Encoding: 61 61 76
Width: 370
Flags: HW
LayerCount: 2
Fore
SplineSet
339 0 m 0
 339 102 284 155 284 170 c 0
 284 176 286 179 292 179 c 0
 309 179 370 97 370 0 c 0
 370 -96 309 -179 292 -179 c 0
 286 -179 284 -176 284 -170 c 0
 284 -155 339 -101 339 0 c 0
178 14 m 0
 213 14 222 15 247 15 c 0
 266 15 271 13 271 1 c 0
 271 -13 268 -17 245 -17 c 0
 206 -17 194 -16 172 -16 c 0
 158 -16 150 -27 150 -41 c 0
 150 -76 151 -90 151 -112 c 0
 151 -131 149 -136 137 -136 c 0
 125 -136 119 -133 119 -110 c 0
 119 -72 120 -63 120 -42 c 0
 120 -25 108 -16 87 -16 c 0
 86 -16 52 -17 37 -17 c 0
 1 -17 0 -14 0 -2 c 0
 0 0 l 0
 0 12 8 15 31 15 c 0
 93 15 l 0
 110 15 120 26 120 38 c 0
 120 53 119 84 119 98 c 0
 119 134 125 135 133 135 c 0
 136 135 l 0
 149 135 152 131 152 113 c 0
 152 97 151 61 151 44 c 0
 151 25 160 14 178 14 c 0
EndSplineSet
EndChar

StartChar: greater
Encoding: 62 62 77
Width: 680
Flags: W
HStem: -17 32<0.61264 118.54 153.007 270.961 310.613 428.54 463.007 580.961>
VStem: 119 32<-135.961 -18.4324 16.5436 134.735> 429 32<-135.961 -18.4324 16.5436 134.735> 649 31<-84.2894 84.7331>
LayerCount: 2
Fore
SplineSet
649 0 m 0
 649 102 594 155 594 170 c 0
 594 176 596 179 602 179 c 0
 619 179 680 97 680 0 c 0
 680 -96 619 -179 602 -179 c 0
 596 -179 594 -176 594 -170 c 0
 594 -155 649 -101 649 0 c 0
488 14 m 0
 523 14 532 15 557 15 c 0
 576 15 581 13 581 1 c 0
 581 -13 578 -17 555 -17 c 0
 516 -17 504 -16 482 -16 c 0
 468 -16 460 -27 460 -41 c 0
 460 -76 461 -90 461 -112 c 0
 461 -131 459 -136 447 -136 c 0
 435 -136 429 -133 429 -110 c 0
 429 -72 430 -63 430 -42 c 0
 430 -25 418 -16 397 -16 c 0
 396 -16 362 -17 347 -17 c 0
 311 -17 310 -14 310 -2 c 0
 310 0 l 0
 310 12 318 15 341 15 c 0
 403 15 l 0
 420 15 430 26 430 38 c 0
 430 53 429 84 429 98 c 0
 429 134 435 135 443 135 c 0
 446 135 l 0
 459 135 462 131 462 113 c 0
 462 97 461 61 461 44 c 0
 461 25 470 14 488 14 c 0
178 14 m 0
 213 14 222 15 247 15 c 0
 266 15 271 13 271 1 c 0
 271 -13 268 -17 245 -17 c 0
 206 -17 194 -16 172 -16 c 0
 158 -16 150 -27 150 -41 c 0
 150 -76 151 -90 151 -112 c 0
 151 -131 149 -136 137 -136 c 0
 125 -136 119 -133 119 -110 c 0
 119 -72 120 -63 120 -42 c 0
 120 -25 108 -16 87 -16 c 0
 86 -16 52 -17 37 -17 c 0
 1 -17 0 -14 0 -2 c 0
 0 0 l 0
 0 12 8 15 31 15 c 0
 93 15 l 0
 110 15 120 26 120 38 c 0
 120 53 119 84 119 98 c 0
 119 134 125 135 133 135 c 0
 136 135 l 0
 149 135 152 131 152 113 c 0
 152 97 151 61 151 44 c 0
 151 25 160 14 178 14 c 0
EndSplineSet
EndChar

StartChar: question
Encoding: 63 63 78
Width: 990
Flags: HW
LayerCount: 2
Fore
SplineSet
959 0 m 0
 959 102 904 155 904 170 c 0
 904 176 906 179 912 179 c 0
 929 179 990 97 990 0 c 0
 990 -96 929 -179 912 -179 c 0
 906 -179 904 -176 904 -170 c 0
 904 -155 959 -101 959 0 c 0
798 14 m 0
 833 14 842 15 867 15 c 0
 886 15 891 13 891 1 c 0
 891 -13 888 -17 865 -17 c 0
 826 -17 814 -16 792 -16 c 0
 778 -16 770 -27 770 -41 c 0
 770 -76 771 -90 771 -112 c 0
 771 -131 769 -136 757 -136 c 0
 745 -136 739 -133 739 -110 c 0
 739 -72 740 -63 740 -42 c 0
 740 -25 728 -16 707 -16 c 0
 706 -16 672 -17 657 -17 c 0
 621 -17 620 -14 620 -2 c 0
 620 0 l 0
 620 12 628 15 651 15 c 0
 713 15 l 0
 730 15 740 26 740 38 c 0
 740 53 739 84 739 98 c 0
 739 134 745 135 753 135 c 0
 756 135 l 0
 769 135 772 131 772 113 c 0
 772 97 771 61 771 44 c 0
 771 25 780 14 798 14 c 0
488 14 m 0
 523 14 532 15 557 15 c 0
 576 15 581 13 581 1 c 0
 581 -13 578 -17 555 -17 c 0
 516 -17 504 -16 482 -16 c 0
 468 -16 460 -27 460 -41 c 0
 460 -76 461 -90 461 -112 c 0
 461 -131 459 -136 447 -136 c 0
 435 -136 429 -133 429 -110 c 0
 429 -72 430 -63 430 -42 c 0
 430 -25 418 -16 397 -16 c 0
 396 -16 362 -17 347 -17 c 0
 311 -17 310 -14 310 -2 c 0
 310 0 l 0
 310 12 318 15 341 15 c 0
 403 15 l 0
 420 15 430 26 430 38 c 0
 430 53 429 84 429 98 c 0
 429 134 435 135 443 135 c 0
 446 135 l 0
 459 135 462 131 462 113 c 0
 462 97 461 61 461 44 c 0
 461 25 470 14 488 14 c 0
178 14 m 0
 213 14 222 15 247 15 c 0
 266 15 271 13 271 1 c 0
 271 -13 268 -17 245 -17 c 0
 206 -17 194 -16 172 -16 c 0
 158 -16 150 -27 150 -41 c 0
 150 -76 151 -90 151 -112 c 0
 151 -131 149 -136 137 -136 c 0
 125 -136 119 -133 119 -110 c 0
 119 -72 120 -63 120 -42 c 0
 120 -25 108 -16 87 -16 c 0
 86 -16 52 -17 37 -17 c 0
 1 -17 0 -14 0 -2 c 0
 0 0 l 0
 0 12 8 15 31 15 c 0
 93 15 l 0
 110 15 120 26 120 38 c 0
 120 53 119 84 119 98 c 0
 119 134 125 135 133 135 c 0
 136 135 l 0
 149 135 152 131 152 113 c 0
 152 97 151 61 151 44 c 0
 151 25 160 14 178 14 c 0
EndSplineSet
EndChar

StartChar: O
Encoding: 79 79 79
Width: 0
VWidth: 0
Flags: W
HStem: -272 38<-58.1948 58.4057> -17 33<-333.999 333.998> 234 38<-58.1948 58.4057>
VStem: -211 92<-120.972 121.195> -17 33<-393.998 393.999> 119 92<-120.972 121.195>
LayerCount: 2
Fore
SplineSet
-315 -17 m 6
 -333 -17 -334 -15 -334 0 c 4
 -334 13 -333 16 -317 16 c 6
 315 16 l 6
 332 16 334 15 334 0 c 4
 334 -14 333 -17 316 -17 c 6
 -315 -17 l 6
-17 375 m 6
 -17 393 -15 394 0 394 c 4
 13 394 16 393 16 377 c 6
 16 -375 l 6
 16 -392 15 -394 0 -394 c 4
 -14 -394 -18 -393 -17 -376 c 6
 -17 375 l 6
0 -234 m 7
 94 -234 119 -136 119 0 c 4
 119 137 94 234 0 234 c 7
 -93 234 -119 137 -119 0 c 4
 -119 -136 -93 -234 0 -234 c 7
211 0 m 28
 211 -134 134 -272 0 -272 c 31
 -134 -272 -211 -134 -211 0 c 31
 -211 134 -134 272 0 272 c 31
 134 272 211 134 211 0 c 28
EndSplineSet
EndChar

StartChar: N
Encoding: 78 78 80
Width: 403
VWidth: 0
Flags: W
HStem: 787 31<125.464 282.731>
VStem: 4 68<642.354 739.951> 325 78<648 738.454> 337 1<259 339>
LayerCount: 2
Back
SplineSet
4 668 m 7xe8
 4 760 93 818 192 818 c 7
 330 818 403 753 403 660 c 7
 403 636 385 581 333 581 c 7
 289 581 270 612.5 270 640 c 7
 270 693 325 691 325 727 c 7xf0
 325 760 271 787 198 787 c 7
 136 787 72 755 72 702 c 7
 72 570 398 552 398 371 c 4
 397 302 334 290 334 255 c 7
 334 225.5 366 228.5 366 176 c 5
 360.234 176 192.673 295.998 200 298.5 c 5
 241 312.5 268 288 288 288 c 7
 317 288 337 311 337 339 c 7
 337 388 265.765 428.551 196 462 c 4
 123 497 4 544.5 4 668 c 7xe8
EndSplineSet
Fore
SplineSet
4 668 m 7xd0
 4 760 93 818 192 818 c 7
 330 818 403 753 403 660 c 7
 403 636 385 581 333 581 c 7
 289 581 270 612.5 270 640 c 7
 270 693 325 691 325 727 c 7xe0
 325 760 271 787 198 787 c 7
 136 787 72 755 72 702 c 7
 72 556.997 398 541.073 398 371 c 7
 398 302.983 338 294 338 259 c 7
 338 231.495 371.5 230.5 372 178 c 5
 366.234 178 192.673 295.998 200 298.5 c 5
 241 312.5 268 288 288 288 c 7
 317 288 337 311 337 339 c 7
 337 469.138 4 476.906 4 668 c 7xd0
EndSplineSet
EndChar

StartChar: E
Encoding: 69 69 81
Width: 400
VWidth: 0
Flags: W
HStem: -12 24<118.448 259.679> 69 144<56.6126 124.059> 937 144<275.941 343.387> 1138 24<140.321 281.552>
VStem: 0 146<87.9545 190.243> 0 64<357.642 520.493 686.739 786.998> 10 68<983.181 1070.31> 254 146<959.757 1062.05> 322 68<79.6889 166.819> 336 64<363.002 463.261 629.507 792.358>
LayerCount: 2
Fore
SplineSet
254 1010 m 0xf3
 254 1056 294 1091 345 1081 c 1
 327 1112 278 1138 208 1138 c 0
 131 1138 78 1101 78 1045 c 0
 78 892 400 884 400 701 c 0
 400 642 359 596 313 571 c 1
 363 536 400 494 400 433 c 0xf240
 400 374 358 327 312 303 c 1
 357 267 390 221 390 154 c 0
 390 64 302 -12 192 -12 c 0
 80 -12 0 58 0 132 c 0
 0 180 33 213 73 213 c 0
 113 213 146 180 146 140 c 0xf880
 146 94 106 59 55 69 c 1
 73 38 122 12 192 12 c 0
 269 12 322 49 322 105 c 0
 322 258 0 266 0 449 c 0
 0 508 41 554 87 579 c 1
 37 614 0 656 0 717 c 0xf480
 0 776 42 823 88 847 c 1
 43 883 10 929 10 996 c 0
 10 1086 98 1162 208 1162 c 0
 320 1162 400 1092 400 1018 c 0
 400 970 367 937 327 937 c 0
 287 937 254 970 254 1010 c 0xf3
107 833 m 1
 78 819 64 798 64 770 c 0xf440
 64 686 195 647 293 585 c 1
 322 599 336 620 336 648 c 0
 336 734 203 766 107 833 c 1
293 317 m 1
 322 331 336 352 336 380 c 0
 336 464 205 503 107 565 c 1
 78 551 64 530 64 502 c 0
 64 416 197 384 293 317 c 1
EndSplineSet
EndChar

StartChar: M
Encoding: 77 77 82
Width: 400
VWidth: 0
Flags: MW
LayerCount: 2
Back
SplineSet
192 12 m 4xf9a0
 268 12 322 49 322 105 c 4
 322 258 0 266 0 449 c 4
 0 508 41 554 87 579 c 5
 37 614 0 656 0 717 c 4xf5a0
 0 776 42 823 88 847 c 5
 43 883 10 929 10 996 c 4
 10 1086 98 1162 208 1162 c 4
 320 1162 400 1090 400 1020 c 4
 400 974 370 943 334 943 c 4
 298 943 269 974 269 1012 c 4xf3c0
 269 1056 307 1089 347 1080 c 5
 331 1109 278 1138 208 1138 c 4
 131 1138 78 1101 78 1045 c 4
 78 892 400 884 400 701 c 4
 400 642 359 596 313 571 c 5
 363 536 400 494 400 433 c 4xf390
 400 374 358 327 312 303 c 5
 357 267 390 221 390 154 c 4
 390 64 301 -12 192 -12 c 4
 80 -12 0 60 0 130 c 4
 0 176 30 207 66 207 c 4
 102 207 131 176 131 138 c 4
 131 94 93 61 53 70 c 5
 69 41 122 12 192 12 c 4xf9a0
250 75 m 5
 223 75 l 5
 223 1075 l 5
 250 1075 l 5
 250 75 l 5
150 1075 m 5
 177 1075 l 5
 177 75 l 5
 150 75 l 5
 150 1075 l 5
107 833 m 5
 78 819 64 798 64 770 c 4
 64 686 195 647 293 585 c 5
 322 599 336 620 336 648 c 4xf590
 336 734 203 766 107 833 c 5
293 317 m 5
 322 331 336 352 336 380 c 4
 336 464 205 503 107 565 c 5
 78 551 64 530 64 502 c 4
 64 416 197 384 293 317 c 5
EndSplineSet
Fore
SplineSet
293 317 m 1
 322 331 336 352 336 380 c 0
 336 424.527 299.191 456.409 250 485.775 c 1
 250 343.881 l 1
 264.759 335.464 279.259 326.59 293 317 c 1
107 833 m 1
 78 819 64 798 64 770 c 0
 64 725.473 100.809 693.591 150 664.225 c 1
 150 806.119 l 1
 135.241 814.536 120.741 823.41 107 833 c 1
150 1075 m 1
 177 1075 l 1
 177 918.886 l 1
 191.721 910.087 207.257 901.55 223 892.97 c 1
 223 1075 l 1
 250 1075 l 1
 250 878.206 l 1
 326.671 835.806 400 788.329 400 701 c 0
 400 642 359 596 313 571 c 1
 363 536 400 494 400 433 c 0
 400 374 358 327 312 303 c 1
 357 267 390 221 390 154 c 0
 390 64 301 -12 192 -12 c 0
 80 -12 0 60 0 130 c 0
 0 176 30 207 66 207 c 0
 102 207 131 176 131 138 c 0
 131 94 93 61 53 70 c 1
 69 41 122 12 192 12 c 0
 268 12 322 49 322 105 c 0
 322 151.818 291.849 185.059 250 213.891 c 1
 250 75 l 1
 223 75 l 1
 223 231.114 l 1
 208.279 239.913 192.743 248.45 177 257.03 c 1
 177 75 l 1
 150 75 l 1
 150 271.794 l 1
 73.3288 314.194 -2.22524e-006 361.671 0 449 c 0
 0 508 41 554 87 579 c 1
 37 614 0 656 0 717 c 0
 0 776 42 823 88 847 c 1
 43 883 10 929 10 996 c 0
 10 1086 98 1162 208 1162 c 0
 320 1162 400 1090 400 1020 c 0
 400 974 370 943 334 943 c 0
 298 943 269 974 269 1012 c 0
 269 1056 307 1089 347 1080 c 1
 331 1109 278 1138 208 1138 c 0
 131 1138 78 1101 78 1045 c 0
 78 998.182 108.151 964.941 150 936.109 c 1
 150 1075 l 1
150 397.961 m 1
 150 539.935 l 1
 135.317 547.959 120.83 556.251 107 565 c 1
 78 551 64 530 64 502 c 0
 64 456.657 100.972 426.325 150 397.961 c 1
177 383.027 m 1
 223 358.735 l 1
 223 501.107 l 1
 177 525.497 l 1
 177 383.027 l 1
177 791.265 m 1
 177 648.893 l 1
 223 624.503 l 1
 223 766.973 l 1
 177 791.265 l 1
250 752.039 m 1
 250 610.065 l 1
 264.683 602.041 279.17 593.749 293 585 c 1
 322 599 336 620 336 648 c 0
 336 693.343 299.028 723.675 250 752.039 c 1
EndSplineSet
EndChar

StartChar: j
Encoding: 106 106 83
Width: 1320
VWidth: 0
Flags: HW
LayerCount: 2
Fore
SplineSet
1320 -96 m 1
 0 -507 l 1
 0 -295 l 1
 1320 116 l 1
 1320 -96 l 1
0 96 m 1
 1320 507 l 1
 1320 295 l 1
 0 -116 l 1
 0 96 l 1
EndSplineSet
EndChar
